PathFileType	4	(X/Y/Z)	OpenSim_Sub07_EMGBaseline_Magnet.trc
DataRate	CameraRate	NumFrames	NumMarkers	Units	OrigDataRate	OrigDataStartFrame	OrigNumFrames
100	100	40	8	m	100	5975	6828
Frame#	Time	torso_imu_offset_imu	pelvis_imu_offset_imu	tibia_r_imu_offset_imu	femur_r_imu_offset_imu	tibia_l_imu_offset_imu	femur_l_imu_offset_imu	toes_r_imu_offset_imu	toes_l_imu_offset_imu
				X1	Y1	Z1	X2	Y2	Z2	X3	Y3	Z3	X4	Y4	Z4	X5	Y5	Z5	X6	Y6	Z6	X7	Y7	Z7	X8		Y8	Z8	

5975	59.74000000	0.92211900	0.17431600	0.07324200	-0.70459000	0.18872100	-0.60058600	-0.65673800	-0.45361300	0.06469700	-0.84252900	-0.17749000	-0.00781200	-0.43017600	0.69604500	0.16650400	-0.60400400	0.33886700	0.48730500	-0.65014600	-0.22900400	-0.40014600	-0.79834000	-0.16381800	-0.34350600
5976	59.75000000	0.92871100	0.17016600	0.08007800	-0.70214800	0.18261700	-0.60034200	-0.65454100	-0.45581100	0.07128900	-0.84472700	-0.17334000	-0.00097700	-0.41943400	0.70507800	0.16162100	-0.61279300	0.33447300	0.48071300	-0.65649400	-0.22924800	-0.38354500	-0.80981400	-0.16186500	-0.32543900
5977	59.76000000	0.92871100	0.16821300	0.07788100	-0.70654300	0.18457000	-0.59790000	-0.64794900	-0.46826200	0.07861300	-0.84472700	-0.17553700	0.00585900	-0.40625000	0.71606400	0.15649400	-0.61279300	0.33447300	0.47607400	-0.66918900	-0.22729500	-0.37109400	-0.82080100	-0.16430700	-0.30297900
5978	59.77000000	0.93066400	0.17456100	0.06884800	-0.70434600	0.18676800	-0.59814500	-0.64379900	-0.46630900	0.09863300	-0.84472700	-0.17968800	0.01977500	-0.38427700	0.72705100	0.14892600	-0.61914100	0.32788100	0.46728500	-0.67309600	-0.23168900	-0.35644500	-0.83007800	-0.15551800	-0.27612300
5979	59.78000000	0.92651400	0.17236300	0.06689500	-0.70874000	0.18457000	-0.59790000	-0.63696300	-0.48291000	0.11035200	-0.84668000	-0.18383800	0.02441400	-0.36865200	0.73144500	0.14404300	-0.62329100	0.31909200	0.46972700	-0.67724600	-0.23779300	-0.35034200	-0.83886700	-0.16040000	-0.22876000
5980	59.79000000	0.92211900	0.17431600	0.07324200	-0.70874000	0.18457000	-0.59790000	-0.62866200	-0.48510700	0.12158200	-0.84252900	-0.17773400	0.01733400	-0.34912100	0.74707000	0.13183600	-0.64306600	0.32324200	0.46069300	-0.67504900	-0.24194300	-0.34399400	-0.85253900	-0.15185500	-0.19067400
5981	59.80000000	0.92871100	0.17236300	0.06689500	-0.70434600	0.18261700	-0.59545900	-0.61792000	-0.48925800	0.13525400	-0.84033200	-0.18383800	0.02441400	-0.32910200	0.75585900	0.12890600	-0.64282200	0.31005900	0.45410200	-0.68115200	-0.24609400	-0.33764600	-0.85717800	-0.15014600	-0.13891600
5982	59.81000000	0.92871100	0.17431600	0.06884800	-0.70654300	0.18261700	-0.60034200	-0.61157200	-0.49560500	0.13525400	-0.84057600	-0.17968800	0.02661100	-0.31372100	0.76025400	0.11059600	-0.65161100	0.31005900	0.43823200	-0.67700200	-0.24609400	-0.33960000	-0.86181600	-0.14160200	-0.08520500
5983	59.82000000	0.92651400	0.17651400	0.06884800	-0.70825200	0.17407200	-0.59985400	-0.60498000	-0.50170900	0.14672900	-0.84423800	-0.19213900	0.02710000	-0.29174800	0.77807600	0.10278300	-0.66674800	0.30127000	0.42504900	-0.67895500	-0.24609400	-0.33764600	-0.85986300	-0.13525400	-0.03125000
5984	59.83000000	0.92871100	0.17236300	0.07348600	-0.70825200	0.16772500	-0.60205100	-0.59863300	-0.50390600	0.15356400	-0.83789100	-0.19824200	0.02954100	-0.27197300	0.78466800	0.09545900	-0.67724600	0.28808600	0.42285200	-0.67480500	-0.25219700	-0.32910200	-0.86010700	-0.12915000	0.03613300
5985	59.84000000	0.92846700	0.17651400	0.06665000	-0.70800800	0.16577100	-0.60424800	-0.59204100	-0.51440400	0.15844700	-0.84179700	-0.20654300	0.02758800	-0.24536100	0.79345700	0.07885700	-0.68798800	0.27929700	0.40942400	-0.66845700	-0.25000000	-0.33325200	-0.85595700	-0.12060500	0.09472700
5986	59.85000000	0.93066400	0.17456100	0.07104500	-0.70385700	0.16992200	-0.59521500	-0.59375000	-0.52465800	0.15649400	-0.83520500	-0.21899400	0.02587900	-0.22778300	0.80029300	0.07397500	-0.69628900	0.26171900	0.39404300	-0.67260700	-0.25830100	-0.32910200	-0.83593800	-0.11425800	0.15307600
5987	59.86000000	0.92651400	0.17651400	0.06884800	-0.70385700	0.16772500	-0.59960900	-0.58325200	-0.53100600	0.15454100	-0.83056600	-0.23144500	0.02856400	-0.20312500	0.80249000	0.06005900	-0.70922900	0.25293000	0.37622100	-0.67236300	-0.26025400	-0.32690400	-0.83007800	-0.09692400	0.20019500
5988	59.87000000	0.92651400	0.17016600	0.06909200	-0.70825200	0.16772500	-0.59960900	-0.58300800	-0.53320300	0.15234400	-0.82836900	-0.23559600	0.03344700	-0.17651400	0.80908200	0.04589800	-0.71777300	0.24633800	0.36279300	-0.67016600	-0.26635700	-0.32885700	-0.81445300	-0.09252900	0.24292000
5989	59.88000000	0.92651400	0.17016600	0.06689500	-0.70605500	0.16796900	-0.60913100	-0.57251000	-0.53930700	0.14819300	-0.82592800	-0.24804700	0.02685500	-0.15454100	0.81811500	0.01855500	-0.72827100	0.23315400	0.35156200	-0.67236300	-0.26440400	-0.32275400	-0.79003900	-0.08813500	0.28125000
5990	59.89000000	0.93090800	0.16821300	0.07128900	-0.70581100	0.16162100	-0.61352500	-0.57641600	-0.54345700	0.15502900	-0.81933600	-0.26025400	0.03198200	-0.13232400	0.82495100	-0.01123000	-0.73461900	0.22216800	0.33618200	-0.67236300	-0.26855500	-0.32690400	-0.77734400	-0.06860400	0.32153300
5991	59.90000000	0.92871100	0.16821300	0.07568400	-0.70581100	0.15942400	-0.61108400	-0.56787100	-0.54980500	0.15747100	-0.81494100	-0.26440400	0.03686500	-0.11254900	0.82714800	-0.04516600	-0.74951200	0.21118200	0.32959000	-0.67016600	-0.27246100	-0.31835900	-0.75756800	-0.05542000	0.35083000
5992	59.91000000	0.93310500	0.16601600	0.07373000	-0.70556600	0.15747100	-0.61792000	-0.56347700	-0.55615200	0.16210900	-0.81469700	-0.27270500	0.03466800	-0.09887700	0.81860400	-0.07397500	-0.75805700	0.20019500	0.31396500	-0.67016600	-0.27050800	-0.32470700	-0.74511700	-0.02905300	0.38671900
5993	59.92000000	0.92895500	0.16381800	0.07153300	-0.70141600	0.15942400	-0.61108400	-0.55908200	-0.56030300	0.16455100	-0.81250000	-0.28100600	0.03955100	-0.09448200	0.82080100	-0.10327100	-0.76440400	0.19140600	0.30737300	-0.66772500	-0.28051800	-0.32446300	-0.71215800	-0.01586900	0.42041000
5994	59.93000000	0.93115200	0.16186500	0.07617200	-0.70996100	0.15527300	-0.61084000	-0.56152300	-0.55200200	0.16870100	-0.80590800	-0.28515600	0.04663100	-0.08325200	0.81884800	-0.12329100	-0.77075200	0.18261700	0.29394500	-0.66772500	-0.28686500	-0.32226600	-0.71313500	0.01074200	0.41357400
5995	59.94000000	0.92700200	0.15747100	0.08276400	-0.71191400	0.15112300	-0.61084000	-0.55932600	-0.55395500	0.17773400	-0.80786100	-0.29345700	0.04248000	-0.08544900	0.81445300	-0.15210000	-0.77270500	0.17602500	0.28955100	-0.67187500	-0.28686500	-0.32031200	-0.73877000	0.03930700	0.38647500
5996	59.95000000	0.93335000	0.16186500	0.08496100	-0.70532200	0.14892600	-0.61303700	-0.55493200	-0.56225600	0.17797900	-0.80346700	-0.30175800	0.04736300	-0.08300800	0.80786100	-0.16308600	-0.77880900	0.16088900	0.27832000	-0.66967800	-0.28466800	-0.31811500	-0.73730500	0.05688500	0.37280300
5997	59.96000000	0.93090800	0.16601600	0.07812500	-0.70507800	0.14282200	-0.61743200	-0.55102500	-0.55615200	0.18432600	-0.79467800	-0.31201200	0.04541000	-0.07861300	0.80590800	-0.18310500	-0.78515600	0.14990200	0.26953100	-0.66967800	-0.28686500	-0.32031200	-0.74877900	0.06591800	0.33691400
5998	59.97000000	0.92919900	0.15966800	0.08276400	-0.71142600	0.14062500	-0.61743200	-0.55078100	-0.56445300	0.18481400	-0.79248000	-0.31616200	0.04565400	-0.08544900	0.80590800	-0.18969700	-0.79565400	0.13671900	0.26757800	-0.66967800	-0.28881800	-0.32446300	-0.75610400	0.08129900	0.31665000
5999	59.98000000	0.92700200	0.15527300	0.08960000	-0.70703100	0.13208000	-0.61938500	-0.54223600	-0.56640600	0.18481400	-0.79028300	-0.32446300	0.04834000	-0.08984400	0.80371100	-0.20092800	-0.79760700	0.13232400	0.26074200	-0.67382800	-0.29101600	-0.31616200	-0.75854500	0.08374000	0.30297900
6000	59.99000000	0.92700200	0.15527300	0.09179700	-0.70678700	0.12793000	-0.62377900	-0.54418900	-0.57275400	0.18066400	-0.78784200	-0.33056600	0.04858400	-0.09423800	0.79711900	-0.21167000	-0.79931600	0.11499000	0.25415000	-0.67358400	-0.29516600	-0.31396500	-0.76782200	0.09252900	0.28051800
6001	60.00000000	0.92675800	0.16162100	0.08911100	-0.70678700	0.12793000	-0.61914100	-0.53759800	-0.57910200	0.18310500	-0.78344700	-0.34301800	0.04663100	-0.11401400	0.79052700	-0.21777300	-0.80102500	0.10180700	0.24755900	-0.67358400	-0.29516600	-0.31396500	-0.77002000	0.09472700	0.26245100
6002	60.01000000	0.93115200	0.16186500	0.09594700	-0.70874000	0.12377900	-0.62133800	-0.54199200	-0.57690400	0.18286100	-0.78320300	-0.34912100	0.04931600	-0.12963900	0.78833000	-0.21972700	-0.80932600	0.08886700	0.24780300	-0.67163100	-0.29711900	-0.30981400	-0.77661100	0.08837900	0.23339800
6003	60.02000000	0.92675800	0.16162100	0.09594700	-0.70654300	0.11962900	-0.62353500	-0.53955100	-0.58105500	0.18310500	-0.77661100	-0.35961900	0.04052700	-0.15405300	0.78369100	-0.21240200	-0.81347700	0.07788100	0.24560500	-0.67163100	-0.29516600	-0.30981400	-0.78735400	0.07959000	0.21093800
6004	60.03000000	0.93115200	0.15747100	0.10034200	-0.70434600	0.11962900	-0.62573200	-0.52929700	-0.58105500	0.18530300	-0.77026400	-0.36157200	0.04052700	-0.16772500	0.78369100	-0.21435500	-0.81518600	0.06274400	0.24585000	-0.67163100	-0.29516600	-0.30346700	-0.79834000	0.07080100	0.17944300
6005	60.04000000	0.93139600	0.15551800	0.09838900	-0.71093800	0.11962900	-0.61889600	-0.52905300	-0.58740200	0.18774400	-0.77417000	-0.36987300	0.03637700	-0.19213900	0.78369100	-0.19848600	-0.81030300	0.04956100	0.24365200	-0.66943400	-0.30127000	-0.30761700	-0.80200200	0.05127000	0.15698200
6006	60.05000000	0.92480500	0.15527300	0.09619100	-0.70629900	0.11328100	-0.62573200	-0.52880900	-0.59375000	0.18579100	-0.76342800	-0.38208000	0.03002900	-0.21215800	0.77905300	-0.18237300	-0.81445300	0.03881800	0.23925800	-0.67163100	-0.29711900	-0.30346700	-0.79956100	0.04248000	0.12548800
6007	60.06000000	0.92919900	0.15747100	0.09594700	-0.70629900	0.11132800	-0.62329100	-0.52880900	-0.59375000	0.18798800	-0.76293900	-0.39038100	0.02563500	-0.23877000	0.77685500	-0.15722700	-0.81176800	0.02807600	0.23730500	-0.66723600	-0.30127000	-0.30127000	-0.81005900	0.02954100	0.08960000
6008	60.07000000	0.92919900	0.15551800	0.10278300	-0.70825200	0.10498000	-0.62524400	-0.52246100	-0.59375000	0.18579100	-0.76098600	-0.39257800	0.02343800	-0.26342800	0.77661100	-0.11450200	-0.81372100	0.01928700	0.24169900	-0.66308600	-0.29907200	-0.29516600	-0.80737300	0.01416000	0.06054700
6009	60.08000000	0.92700200	0.15527300	0.10058600	-0.70825200	0.10278300	-0.62524400	-0.52270500	-0.59155300	0.18798800	-0.75634800	-0.40698200	0.01953100	-0.29418900	0.76538100	-0.07788100	-0.81347700	0.01049800	0.23974600	-0.66918900	-0.30322300	-0.29907200	-0.81127900	-0.00317400	0.03125000
6010	60.09000000	0.92504900	0.15332000	0.10278300	-0.70825200	0.10278300	-0.62988300	-0.52441400	-0.59985400	0.19043000	-0.75610400	-0.41308600	0.01733400	-0.32299800	0.75415000	-0.03662100	-0.81298800	-0.00024400	0.23974600	-0.66503900	-0.30322300	-0.29711900	-0.81250000	-0.02514600	0.00219700
6011	60.10000000	0.92724600	0.15112300	0.10278300	-0.70166000	0.09863300	-0.63671900	-0.52221700	-0.59985400	0.18603500	-0.74560500	-0.41308600	0.01977500	-0.35620100	0.74755900	-0.01562500	-0.80859400	-0.00463900	0.24194300	-0.66308600	-0.30322300	-0.29492200	-0.81420900	-0.04028300	-0.02465800
6012	60.11000000	0.93139600	0.15551800	0.10717800	-0.70800800	0.09863300	-0.63208000	-0.51611300	-0.59985400	0.18603500	-0.74096700	-0.42749000	0.01342800	-0.38696300	0.72973600	0.00341800	-0.81469700	-0.01562500	0.24218800	-0.66503900	-0.30322300	-0.29492200	-0.81347700	-0.06225600	-0.05615200
6013	60.12000000	0.92919900	0.15332000	0.10717800	-0.70141600	0.09668000	-0.63891600	-0.52197300	-0.60815400	0.18627900	-0.73657200	-0.43164100	0.01123000	-0.41748000	0.70556600	0.01831100	-0.81469700	-0.01757800	0.24438500	-0.65893600	-0.30517600	-0.29492200	-0.80615200	-0.07739300	-0.08300800
6014	60.13000000	0.92504900	0.15332000	0.10937500	-0.69506800	0.09887700	-0.63891600	-0.51342800	-0.61230500	0.18188500	-0.73022500	-0.43774400	0.01147500	-0.44628900	0.69213900	0.02172900	-0.81665000	-0.02197300	0.23779300	-0.65673800	-0.30297900	-0.29492200	-0.80346700	-0.08813500	-0.11669900
